<svg width="512" height="512" viewBox="0 0 512 512" fill="none" xmlns="http://www.w3.org/2000/svg">
<path d="M416 512H96C42.976 512 0 469.024 0 416V96C0 42.976 42.976 0 96 0H416C469.024 0 512 42.976 512 96V416C512 469.024 469.024 512 416 512Z" fill="#8CA8EB" fill-opacity="0.1"/>
<path d="M335.136 364.32C298.944 353.856 270.656 326.112 259.472 290.112C258.832 288.064 257.392 286.352 255.488 285.376C253.568 284.384 251.36 284.224 249.312 284.896C243.44 286.848 239.28 282.608 239.28 277.68C239.28 273.488 242.544 270.128 246.72 270.032C248.896 269.968 250.944 269.04 252.416 267.44C253.888 265.84 254.64 263.712 254.512 261.536C254.4 260.016 254.4 258.4 254.4 256.8C254.4 226.912 266.064 198.784 287.216 177.616C300.592 164.24 317.152 154.448 335.104 149.28C338.528 148.288 340.896 145.168 340.896 141.616C340.896 138.048 338.56 134.912 335.136 133.92C323.472 130.528 311.344 128.8 299.088 128.8C270.016 128.8 242.672 138.32 220.032 156.32C217.2 158.576 216.224 162.448 217.68 165.776C217.92 166.336 218.048 167.152 218.048 168.112C218.048 172.336 214.608 175.76 210.4 175.76C209.44 175.76 208.624 175.632 208.064 175.392C204.752 173.952 200.864 174.912 198.608 177.744C180.608 200.384 171.088 227.728 171.088 256.8C171.088 327.376 228.512 384.8 299.088 384.8C311.344 384.8 323.472 383.088 335.136 379.68C338.56 378.688 340.912 375.552 340.896 372C340.896 368.432 338.544 365.296 335.136 364.32V364.32Z" fill="#8CA8EB"/>
</svg>
