<svg width="512" height="512" viewBox="0 0 512 512" fill="none" xmlns="http://www.w3.org/2000/svg">
<path d="M416 512H96C42.9766 512 0 469.023 0 416V96C0 42.9766 42.9766 0 96 0H416C469.023 0 512 42.9766 512 96V416C512 469.008 469.008 512 416 512Z" fill="#FFF9DD" fill-opacity="0.08"/>
<path d="M330 255.328C330 296.566 296.566 330 255.328 330C214.086 330 180.656 296.566 180.656 255.328C180.656 214.086 214.086 180.656 255.328 180.656C296.566 180.656 330 214.086 330 255.328Z" fill="#FFD200" fill-opacity="0.7"/>
<path d="M255.328 164.656C261.215 164.656 266 159.871 266 153.984V137.984C266 132.098 261.215 127.328 255.328 127.328C249.441 127.328 244.656 132.113 244.656 138V154C244.656 159.887 249.441 164.656 255.328 164.656Z" fill="#FFE777" fill-opacity="0.6"/>
<path d="M170.594 194.098L156.719 186.098C151.617 183.152 145.09 184.895 142.145 190C139.199 195.105 140.945 201.633 146.047 204.574L159.922 212.574C161.602 213.551 163.426 214 165.246 214C168.93 214 172.512 212.098 174.496 208.672C177.457 203.551 175.695 197.023 170.594 194.098Z" fill="#FFE777" fill-opacity="0.6"/>
<path d="M364.594 306.098L350.719 298.098C345.633 295.152 339.09 296.895 336.145 302C333.199 307.105 334.945 313.633 340.047 316.574L353.922 324.574C355.602 325.551 357.426 326 359.246 326C362.93 326 366.512 324.098 368.496 320.672C371.441 315.551 369.695 309.023 364.594 306.098V306.098Z" fill="#FFE777" fill-opacity="0.6"/>
<path d="M159.937 298.098L146.062 306.098C140.961 309.039 139.215 315.566 142.16 320.672C144.145 324.098 147.727 326 151.406 326C153.215 326 155.055 325.535 156.734 324.574L170.609 316.574C175.711 313.633 177.457 307.105 174.512 302C171.551 296.895 165.008 295.152 159.937 298.098Z" fill="#FFE777" fill-opacity="0.6"/>
<path d="M345.406 214C347.215 214 349.055 213.535 350.734 212.574L364.609 204.574C369.711 201.633 371.457 195.105 368.512 190C365.551 184.895 359.023 183.152 353.937 186.098L340.062 194.098C334.961 197.039 333.215 203.566 336.16 208.672C338.129 212.078 341.711 214 345.406 214Z" fill="#FFE777" fill-opacity="0.6"/>
<path d="M255.328 346C249.441 346 244.656 350.785 244.656 356.672V372.672C244.656 378.559 249.441 383.328 255.328 383.328C261.215 383.328 266 378.543 266 372.656V356.656C266 350.77 261.215 346 255.328 346Z" fill="#FFE777" fill-opacity="0.6"/>
</svg>
